<svg width="53" height="53" viewBox="0 0 53 53" fill="none" xmlns="http://www.w3.org/2000/svg">
<path fill-rule="evenodd" clip-rule="evenodd" d="M40.6704 23.1403L32.1535 14.5816C29.0904 11.5189 24.1404 11.5189 21.0773 14.5816L12.5604 23.1403C12.286 23.414 12.2036 23.8273 12.3518 24.186C12.5 24.5448 12.8494 24.778 13.236 24.7759H14.6794V34.1062C14.685 37.8876 17.7341 40.9516 21.497 40.9572H22.9609C23.4883 40.9516 23.9129 40.5203 23.9129 39.9903V32.1311H29.3179V39.9903C29.3179 40.5203 29.7425 40.9516 30.2699 40.9572H31.7338C35.4967 40.9516 38.5458 37.8876 38.5514 34.1062V24.7759H39.9948C40.3814 24.778 40.7308 24.5448 40.879 24.186C41.0272 23.8273 40.9448 23.414 40.6704 23.1403ZM22.4261 15.9416C23.536 14.8247 25.0422 14.1971 26.613 14.1971C28.1837 14.1971 29.6899 14.8247 30.7998 15.9416L37.6788 22.8544H15.5471L22.4261 15.9416ZM31.7462 39.0348C34.4519 39.0291 36.644 36.8263 36.6496 34.1073V24.7771H16.6061V34.1073C16.6117 36.8263 18.8038 39.0291 21.5095 39.0348H22.0111V31.1653C22.0167 30.6353 22.4459 30.2086 22.9734 30.2086H30.2824C30.8098 30.2086 31.239 30.6353 31.2446 31.1653V39.0348H31.7462Z" fill="#CDD0E3"/>
<path d="M32.1535 14.5816L32.3307 14.4053L32.3302 14.4048L32.1535 14.5816ZM40.6704 23.1403L40.4932 23.3167L40.4939 23.3173L40.6704 23.1403ZM21.0773 14.5816L20.9006 14.4048L20.9001 14.4053L21.0773 14.5816ZM12.5604 23.1403L12.737 23.3173L12.7376 23.3167L12.5604 23.1403ZM12.3518 24.186L12.1208 24.2815H12.1208L12.3518 24.186ZM13.236 24.7759V24.5259L13.2347 24.5259L13.236 24.7759ZM14.6794 24.7759H14.9294V24.5259H14.6794V24.7759ZM14.6794 34.1062H14.4294L14.4294 34.1065L14.6794 34.1062ZM21.497 40.9572L21.4967 41.2072H21.497V40.9572ZM22.9609 40.9572V41.2073L22.9636 41.2072L22.9609 40.9572ZM23.9129 39.9903H23.6629V39.9903L23.9129 39.9903ZM23.9129 32.1311V31.8811H23.6629V32.1311H23.9129ZM29.3179 32.1311H29.5679V31.8811H29.3179V32.1311ZM29.3179 39.9903L29.5679 39.9903V39.9903H29.3179ZM30.2699 40.9572L30.2672 41.2072H30.2699V40.9572ZM31.7338 40.9572V41.2072H31.7341L31.7338 40.9572ZM38.5514 34.1062L38.8014 34.1065V34.1062H38.5514ZM38.5514 24.7759V24.5259H38.3014V24.7759H38.5514ZM39.9948 24.7759L39.9961 24.5259H39.9948V24.7759ZM40.879 24.186L41.11 24.2815V24.2815L40.879 24.186ZM22.4261 15.9416L22.6033 16.118L22.6035 16.1178L22.4261 15.9416ZM30.7998 15.9416L30.6224 16.1178L30.6226 16.118L30.7998 15.9416ZM37.6788 22.8544V23.1044H38.2803L37.856 22.6781L37.6788 22.8544ZM15.5471 22.8544L15.3699 22.6781L14.9456 23.1044H15.5471V22.8544ZM36.6496 34.1073L36.8996 34.1079V34.1073H36.6496ZM31.7462 39.0348V39.2848H31.7467L31.7462 39.0348ZM36.6496 24.7771H36.8996V24.5271H36.6496V24.7771ZM16.6061 24.7771V24.5271H16.3561V24.7771H16.6061ZM16.6061 34.1073H16.3561L16.3561 34.1079L16.6061 34.1073ZM21.5095 39.0348L21.509 39.2848H21.5095V39.0348ZM22.0111 39.0348V39.2848H22.2611V39.0348H22.0111ZM22.0111 31.1653L21.7611 31.1626V31.1653H22.0111ZM22.9734 30.2086L22.9733 30.4586H22.9734V30.2086ZM30.2824 30.2086V30.4586H30.2824L30.2824 30.2086ZM31.2446 31.1653H31.4946L31.4946 31.1626L31.2446 31.1653ZM31.2446 39.0348H30.9946V39.2848H31.2446V39.0348ZM31.9763 14.758L40.4932 23.3167L40.8476 22.964L32.3307 14.4053L31.9763 14.758ZM21.2541 14.7584C24.2195 11.7933 29.0113 11.7933 31.9767 14.7584L32.3302 14.4048C29.1696 11.2444 24.0612 11.2444 20.9006 14.4048L21.2541 14.7584ZM12.7376 23.3167L21.2545 14.758L20.9001 14.4053L12.3832 22.964L12.7376 23.3167ZM12.5829 24.0906C12.4732 23.8251 12.5344 23.5194 12.737 23.3173L12.3838 22.9633C12.0377 23.3086 11.934 23.8294 12.1208 24.2815L12.5829 24.0906ZM13.2347 24.5259C12.9504 24.5274 12.6925 24.3559 12.5829 24.0906L12.1208 24.2815C12.3076 24.7337 12.7485 25.0285 13.2373 25.0259L13.2347 24.5259ZM14.6794 24.5259H13.236V25.0259H14.6794V24.5259ZM14.9294 34.1062V24.7759H14.4294V34.1062H14.9294ZM21.4974 40.7072C17.8734 40.7018 14.9348 37.7506 14.9294 34.1058L14.4294 34.1065C14.4352 38.0246 17.5948 41.2014 21.4967 41.2072L21.4974 40.7072ZM22.9609 40.7072H21.497V41.2072H22.9609V40.7072ZM23.6629 39.9903C23.6629 40.3844 23.3475 40.7031 22.9582 40.7073L22.9636 41.2072C23.6292 41.2001 24.1629 40.6562 24.1629 39.9903L23.6629 39.9903ZM23.6629 32.1311V39.9903H24.1629V32.1311H23.6629ZM29.3179 31.8811H23.9129V32.3811H29.3179V31.8811ZM29.5679 39.9903V32.1311H29.0679V39.9903H29.5679ZM30.2726 40.7073C29.8833 40.7031 29.5679 40.3844 29.5679 39.9903L29.0679 39.9903C29.0679 40.6562 29.6016 41.2001 30.2672 41.2072L30.2726 40.7073ZM31.7338 40.7072H30.2699V41.2072H31.7338V40.7072ZM38.3014 34.1058C38.296 37.7506 35.3574 40.7018 31.7334 40.7072L31.7341 41.2072C35.636 41.2014 38.7956 38.0246 38.8014 34.1065L38.3014 34.1058ZM38.3014 24.7759V34.1062H38.8014V24.7759H38.3014ZM39.9948 24.5259H38.5514V25.0259H39.9948V24.5259ZM40.6479 24.0906C40.5383 24.3559 40.2804 24.5274 39.9961 24.5259L39.9935 25.0259C40.4823 25.0285 40.9232 24.7337 41.11 24.2815L40.6479 24.0906ZM40.4939 23.3173C40.6964 23.5194 40.7576 23.8251 40.6479 24.0906L41.11 24.2815C41.2968 23.8294 41.1931 23.3086 40.847 22.9633L40.4939 23.3173ZM26.613 13.9471C24.9755 13.9471 23.4055 14.6014 22.2488 15.7654L22.6035 16.1178C23.6665 15.048 25.109 14.4471 26.613 14.4471V13.9471ZM30.9771 15.7654C29.8204 14.6014 28.2504 13.9471 26.613 13.9471V14.4471C28.1169 14.4471 29.5594 15.048 30.6224 16.1178L30.9771 15.7654ZM37.856 22.6781L30.977 15.7653L30.6226 16.118L37.5016 23.0308L37.856 22.6781ZM15.5471 23.1044H37.6788V22.6044H15.5471V23.1044ZM22.2489 15.7653L15.3699 22.6781L15.7243 23.0308L22.6033 16.118L22.2489 15.7653ZM36.3996 34.1068C36.3943 36.6893 34.3126 38.7794 31.7457 38.7848L31.7467 39.2848C34.5913 39.2788 36.8937 36.9634 36.8996 34.1079L36.3996 34.1068ZM36.3996 24.7771V34.1073H36.8996V24.7771H36.3996ZM16.6061 25.0271H36.6496V24.5271H16.6061V25.0271ZM16.8561 34.1073V24.7771H16.3561V34.1073H16.8561ZM21.51 38.7848C18.9431 38.7794 16.8615 36.6893 16.8561 34.1068L16.3561 34.1079C16.362 36.9634 18.6644 39.2788 21.509 39.2848L21.51 38.7848ZM22.0111 38.7848H21.5095V39.2848H22.0111V38.7848ZM21.7611 31.1653V39.0348H22.2611V31.1653H21.7611ZM22.9734 29.9586C22.3077 29.9586 21.7682 30.4967 21.7611 31.1626L22.2611 31.1679C22.2653 30.7738 22.5841 30.4586 22.9733 30.4586L22.9734 29.9586ZM30.2824 29.9586H22.9734V30.4586H30.2824V29.9586ZM31.4946 31.1626C31.4876 30.4967 30.948 29.9586 30.2824 29.9586L30.2824 30.4586C30.6717 30.4586 30.9905 30.7738 30.9946 31.1679L31.4946 31.1626ZM31.4946 39.0348V31.1653H30.9946V39.0348H31.4946ZM31.7462 38.7848H31.2446V39.2848H31.7462V38.7848Z" fill="#CDD0E3"/>
</svg>
